Coordinates
version=1
nRows=11
nColumns=46
inDegrees=yes

Units are S.I. units (second, meters, Newtons, ...)
Angles are in degrees.

endheader
time	pelvis_tilt	pelvis_list	pelvis_rotation	pelvis_tx	pelvis_ty	pelvis_tz	bb_angle	bb_tx	bb_ty	bb_tz	hip_flexion_r	hip_adduction_r	hip_rotation_r	knee_angle_r	knee_angle_r_beta	ankle_angle_r	subtalar_angle_r	mtp_angle_r	crank_angle_r	hip_flexion_l	hip_adduction_l	hip_rotation_l	knee_angle_l	knee_angle_l_beta	ankle_angle_l	subtalar_angle_l	mtp_angle_l	crank_angle_l	lumbar_extension	lumbar_bending	lumbar_rotation	arm_flex_r	arm_add_r	arm_rot_r	elbow_flex_r	pro_sup_r	wrist_flex_r	wrist_dev_r	arm_flex_l	arm_add_l	arm_rot_l	elbow_flex_l	pro_sup_l	wrist_flex_l	wrist_dev_l
      0.00500000	     -5.88289955	     -3.00484901	     -2.54251837	      0.05639913	      1.16984886	     -0.22472541	      0.00000000	      0.50000000	      0.00000000	      0.25000000	     77.11081572	     -0.67127743	     -0.72348597	     92.35623412	      1.61192037	     -1.87532368	    -10.46786816	      0.00000000	      0.00000000	     35.41578209	     -8.03389258	      1.08883421	     59.00768566	      1.02987840	      2.21905724	     -8.86230039	      0.00000000	      0.00000000	    -58.48874720	      2.05147509	      2.72747140	     89.68331198	     -3.50821877	     53.86866070	     23.11129501	     23.54397604	      0.00000000	      0.00000000	     89.58350841	     -7.07136684	     59.06083122	     15.49670062	     23.33223500	      0.00000000	      0.00000000
      0.01000000	     -5.87141253	     -2.99464521	     -2.56476514	      0.05645337	      1.16988952	     -0.22473011	      0.00000000	      0.50000000	      0.00000000	      0.25000000	     77.12554947	     -0.65168505	     -0.69575973	     92.39823750	      1.61265347	     -1.89508862	    -10.44299252	      0.00000000	      0.00000000	     35.36900797	     -8.03801725	      1.05344958	     58.95394791	      1.02894050	      2.23597595	     -8.84847159	      0.00000000	      0.00000000	    -58.50338632	      1.99719005	      2.77486096	     89.68735286	     -3.78464730	     54.62737498	     23.16422703	     24.34562028	      0.00000000	      0.00000000	     89.57260534	     -6.82200677	     57.63005830	     15.48050852	     23.83286580	      0.00000000	      0.00000000
      0.01500000	     -5.88536454	     -2.99351658	     -2.59218447	      0.05650837	      1.16987448	     -0.22473468	      0.00000000	      0.50000000	      0.00000000	      0.25000000	     77.16677335	     -0.62399654	     -0.68848987	     92.43263745	      1.61325386	     -1.95850673	    -10.47816153	      0.00000000	      0.00000000	     35.35947824	     -8.05850845	      1.00649008	     58.91727472	      1.02830043	      2.25435852	     -8.82973516	      0.00000000	      0.00000000	    -58.47803695	      2.01631048	      2.72375205	     89.68637339	     -3.52384018	     54.03340175	     22.68260921	     25.69999733	      0.00000000	      0.00000000	     89.57673546	     -7.09469139	     58.49297922	     15.16263198	     25.84172783	      0.00000000	      0.00000000
      0.02000000	     -5.90234652	     -3.08049522	     -2.59398703	      0.05658825	      1.16982206	     -0.22472735	      0.00000000	      0.50000000	      0.00000000	      0.25000000	     77.18403270	     -0.58350844	     -0.73844383	     92.46474010	      1.61381416	     -1.86439558	    -10.42747542	      0.00000000	      0.00000000	     35.36500233	     -8.12893688	      1.07954541	     58.90699240	      1.02812097	      2.28619914	     -8.83855652	      0.00000000	      0.00000000	    -58.50516837	      2.13008444	      2.69306269	     89.69072723	     -3.53267628	     54.20296977	     22.79996009	     26.64297468	      0.00000000	      0.00000000	     89.56418230	     -7.09709544	     59.27149551	     15.05368159	     27.17279778	      0.00000000	      0.00000000
      0.02500000	     -5.82688936	     -3.24653319	     -2.88599359	      0.05723837	      1.16906255	     -0.22351922	      0.00000000	      0.50000000	      0.00000000	      0.25000000	     77.22604795	     -0.28760292	     -0.80085434	     92.52741196	      1.61490799	     -1.98295701	     -9.96225375	      0.00000000	      0.00000000	     35.29537010	     -8.12423203	      1.58343502	     58.98514680	      1.02948502	      2.55459554	     -7.85962777	      0.00000000	      0.00000000	    -58.57041988	      1.97854655	      2.60627773	     89.68629010	     -3.09434980	     54.09206066	     22.83116183	     26.53484255	      0.00000000	      0.00000000	     89.54735317	     -6.58867059	     59.27948793	     14.10762253	     26.91033057	      0.00000000	      0.00000000
      0.03000000	     -5.91277242	     -3.14390790	     -2.59208148	      0.05654471	      1.16984414	     -0.22483074	      0.00000000	      0.50000000	      0.00000000	      0.25000000	     77.22924361	     -0.56033661	     -0.74457533	     92.51616014	      1.61471161	     -1.86806149	    -10.10056399	      0.00000000	      0.00000000	     35.36725982	     -8.25833289	      1.05584139	     58.88991023	      1.02782283	      2.63493184	     -8.02513354	      0.00000000	      0.00000000	    -58.45218390	      2.17959098	      2.77143987	     89.68773051	     -3.40252806	     54.02636598	     22.72643423	     26.50303149	      0.00000000	      0.00000000	     89.60179185	     -6.91887964	     59.22852051	     14.04143648	     26.88115306	      0.00000000	      0.00000000
      0.03500000	     -5.88615102	     -3.02917227	     -2.61820359	      0.05659749	      1.16994689	     -0.22489188	      0.00000000	      0.50000000	      0.00000000	      0.25000000	     77.24533943	     -0.59707610	     -0.64205594	     92.56569285	      1.61557611	     -1.91611597	    -10.30770759	      0.00000000	      0.00000000	     35.26463037	     -8.09328812	      0.98654373	     58.75385837	      1.02544828	      2.28565080	     -8.79799224	      0.00000000	      0.00000000	    -58.53129486	      2.05380166	      2.68257570	     89.68205020	     -3.11800375	     52.25655878	     22.12190628	     27.96141379	      0.00000000	      0.00000000	     89.55694181	     -6.85140143	     55.43131717	     14.84264988	     28.19024292	      0.00000000	      0.00000000
      0.04000000	     -5.90003579	     -3.05422415	     -2.60863567	      0.05662417	      1.16993098	     -0.22495251	      0.00000000	      0.50000000	      0.00000000	      0.25000000	     77.27009628	     -0.59563051	     -0.66482054	     92.58389421	      1.61589379	     -1.95599462	    -10.35506437	      0.00000000	      0.00000000	     35.26885937	     -8.10934891	      0.99871747	     58.71073275	      1.02469559	      2.26397203	     -8.81277099	      0.00000000	      0.00000000	    -58.47534837	      2.08595182	      2.78899736	     89.68252815	     -3.59625823	     53.86026021	     22.92617452	     25.51829405	      0.00000000	      0.00000000	     89.58223884	     -7.11064690	     59.26674431	     14.91926050	     25.67097521	      0.00000000	      0.00000000
      0.04500000	     -5.90524337	     -3.04307574	     -2.62820377	      0.05660699	      1.16989567	     -0.22492743	      0.00000000	      0.50000000	      0.00000000	      0.25000000	     77.30429916	     -0.57580735	     -0.64408205	     92.61733417	      1.61647743	     -1.92911015	    -10.32610302	      0.00000000	      0.00000000	     35.27451188	     -8.12207388	      0.94429367	     58.69468377	      1.02441549	      2.23024636	     -8.84316180	      0.00000000	      0.00000000	    -58.46175214	      2.05058898	      2.77884839	     89.68673185	     -3.70914469	     54.41516909	     23.01340134	     25.31308720	      0.00000000	      0.00000000	     89.57506902	     -7.03458448	     58.44294076	     15.10929425	     25.23562636	      0.00000000	      0.00000000
      0.05000000	     -5.90972396	     -3.06635481	     -2.62080037	      0.05662482	      1.16991918	     -0.22492615	      0.00000000	      0.50000000	      0.00000000	      0.25000000	     77.31043600	     -0.56419288	     -0.66086699	     92.63015451	      1.61670118	     -1.98423372	    -10.39251077	      0.00000000	      0.00000000	     35.26424401	     -8.14709893	      0.94903620	     58.66229252	      1.02385015	      2.22068922	     -8.83752653	      0.00000000	      0.00000000	    -58.48297656	      2.05020995	      2.84729302	     89.68695415	     -3.94179473	     54.72370467	     23.09444108	     26.19193519	      0.00000000	      0.00000000	     89.56966940	     -6.80644504	     57.38842808	     14.92172795	     26.03497181	      0.00000000	      0.00000000
      0.05500000	     -5.90931771	     -3.06828260	     -2.59260504	      0.05661615	      1.16990945	     -0.22500330	      0.00000000	      0.50000000	      0.00000000	      0.25000000	     77.32290675	     -0.59296499	     -0.65849706	     92.65507614	      1.61713615	     -1.99841272	    -10.37534191	      0.00000000	      0.00000000	     35.25472425	     -8.12868039	      0.96977501	     58.63679048	      1.02340506	      2.27872097	     -8.78962752	      0.00000000	      0.00000000	    -58.48014664	      2.10732967	      2.78637092	     89.68645783	     -3.68338404	     54.27315609	     23.08049215	     24.91078271	      0.00000000	      0.00000000	     89.57668144	     -7.10184340	     58.93176466	     15.20076926	     24.81619276	      0.00000000	      0.00000000
